<?xml version="1.0" encoding="UTF-8"?>
<svg id="Layer_1" data-name="Layer 1" xmlns="http://www.w3.org/2000/svg" viewBox="0 0 307.08 307.59">
  <defs>
    <style>
      .cls-1 {
        fill: #aaaf4e;
      }
    </style>
  </defs>
  <path class="cls-1" d="M223.71,307.58c-1.65-1.28-2.62-2.05-3.47-4.02-2.88-6.62-3.66-16.54-6.13-23.56l86.66-22.8,6.31,22.8v3.6c-1.21,1.33-2.12,3.04-4.06,3.44l-75.71,20.55h-3.6Z"/>
  <path class="cls-1" d="M3.6,307.58c-.83-.72-3.6-2.92-3.6-3.9v-26.69h82.16v25.49c0,1.39-2.27,4.34-3.6,5.1H3.59h.01Z"/>
  <path class="cls-1" d="M95.96,307.58c-.84-.88-3.6-1.96-3.6-3.3v-27.29h66.57v25.49c0,1.39-2.27,4.34-3.6,5.1h-59.37,0Z"/>
  <path class="cls-1" d="M158.93,56.89l.3,7.79,3.76-2.84,78.26-20.44c.88.4,2.12.78,2.82,1.43,3.22,2.98,6.34,24.66,8.48,29.96l-86.04,23.72-7.56-26.43v175.42l-.9.9h-65.67V56.88h66.57-.02Z"/>
  <path class="cls-1" d="M82.17,77.28v168.23l-.9.9H.01V77.28h82.16ZM19.02,93c-2,.54-3.39,2.28-3.44,4.36.95,13.34-1.22,28.28-.01,41.42.26,2.87.85,3.77,3.61,4.79,13.19-.63,29.41,1.81,42.31.3,3.76-.44,4.79-2.92,5.11-6.29,1.17-12.55-.93-26.87,0-39.62-.64-3.47-1.57-4.79-5.08-5.11-13.42-1.23-28.85.87-42.48.16h-.02Z"/>
  <polygon class="cls-1" points="290.28 216.41 203.37 239.17 174.18 127.04 260.88 103.67 290.28 216.41"/>
  <path class="cls-1" d="M82.17,67.09H.01v-21.89c0-1.52,3.92-4.27,5.7-3.9,22.46,1.48,47.44-1.97,69.59-.02,1.45.13,4,.57,5.06,1.54.56.51,1.81,3.64,1.81,4.18v20.09h0Z"/>
  <path class="cls-1" d="M298.07,247.6l-86.02,22.72c-.67-.17-.76-.85-1-1.38-.62-1.36-4.84-17.69-4.77-18.65.06-.75.29-1.18,1.04-1.37l84.45-22.33,1.37,1.04,4.92,19.97h.01Z"/>
  <path class="cls-1" d="M158.93,20.91h-66.57V3.82c0-1.39,3.6-3.42,5.08-3.31,17.77,1.25,37.7-1.62,55.21,0,1.39.13,3.09.28,4.2,1.2.56.46,2.08,3.45,2.08,3.92v15.29h0Z"/>
  <polygon class="cls-1" points="92.36 46.7 92.36 31.1 158.03 31.1 158.93 32 158.93 45.8 158.03 46.7 92.36 46.7"/>
  <polygon class="cls-1" points="257.85 94.02 171.57 116.84 169.14 106.08 255.48 83.28 257.85 94.02"/>
  <polygon class="cls-1" points="82.17 256.6 82.17 265.9 81.27 266.8 0 266.8 0 256.6 82.17 256.6"/>
  <polygon class="cls-1" points="158.93 256.6 158.93 265.9 158.03 266.8 92.36 266.8 92.36 256.6 158.93 256.6"/>
</svg>