<?xml version="1.0" encoding="UTF-8"?>
<svg id="Layer_1" data-name="Layer 1" xmlns="http://www.w3.org/2000/svg" viewBox="0 0 293.11 408.77">
  <defs>
    <style>
      .cls-1 {
        fill: #aaaf4e;
      }
    </style>
  </defs>
  <path class="cls-1" d="M269.43,38.6v75.29c0,29.34-52.57,57.34-71.21,76.43-6.69,8.21-6.65,21.52.94,29.17,21.35,21.52,70.27,45.86,70.27,79.47v71.08c17.98-1.25,24.98,8.32,22.64,25.58-.94,6.94-6.25,11.88-13.04,13.04l-264.1.11c-14.62-1.06-18.11-19.71-12.19-30.76,3.9-7.28,13.58-8.34,21.06-7.96l-.04-72.8c2.85-37.93,54.14-56.81,74.81-84.17,1.39-6.34,2.41-16.84-2.06-22.16l-58.03-47.96c-7.2-7.54-14.69-22.77-14.69-33.26V38.62C5.81,39.87-1.19,30.3,1.15,13.04,1.99,6.86,6.3,2.41,11.99.32l267.87-.32c8.01,1.57,12.58,8.44,13.14,16.3,1.17,16.49-7.32,24.07-23.58,22.33v-.03ZM67.34,38.82c-8.65,1.82-15.52,6.99-17.92,15.73-2.44,8.89-2.24,51.42.21,60.43,1.63,5.99,4.29,9.07,8.65,13.22,15.33,14.62,35.36,27.12,50.88,41.65,20.47,19.16,20.72,50.71,0,69.78-15.69,14.43-35.56,27.04-50.88,41.65-2.74,2.62-5.96,5.84-7.46,9.36-4.01,9.36-3.4,43.23-2.66,54.62.89,13.75,6.46,22.47,20.66,24.77l154.8.04c9.76-.84,17.97-7.08,20.35-16.66,2.22-8.95,2.12-50.92-.34-59.77-.96-3.45-4.1-8.49-6.59-11.08-15.91-16.63-43.51-31.41-58.43-48.4-16.09-18.33-11.78-48.26,5.46-64.3,16.55-15.39,36.47-29.01,53.43-44.15,2.47-2.63,5.42-7.86,6.33-11.34,2.25-8.66,2.32-51.3-.01-59.81-2.53-9.22-10.17-14.6-19.39-15.94l-157.08.21h-.01Z"/>
  <path class="cls-1" d="M219.52,354.61c-.94.95-2.73,1.62-3.89,2.42l-136.68.34c-12.2-2.02-9.85-25.13-6.76-33.6,6.57-18,38.89-34.51,51.8-49.15,10.49-7.78,25.75-8.88,37.77-4.27,8.35,3.2,41.63,31.88,49.65,39.51,3.22,3.06,7,7.3,8.82,11.37,3.4,7.6,5.43,27.19-.7,33.36v.02Z"/>
</svg>