<?xml version="1.0" encoding="UTF-8"?>
<svg id="Layer_1" data-name="Layer 1" xmlns="http://www.w3.org/2000/svg" viewBox="0 0 394.79 393.32">
  <defs>
    <style>
      .cls-1 {
        fill: #aaaf4e;
      }
    </style>
  </defs>
  <path class="cls-1" d="M221.19,393.32v-151.57h46.7l7.05-53.75h-51.99v-40.98c0-5.16,6.21-12.55,11-14.56,2.07-.87,8.69-2.62,10.59-2.62h33.04v-49.35c-30.15-.65-65.42-6.73-89.46,15.84-25.62,24.05-20.12,60.65-20.69,92.55h-45.82v53.75h45.82v150.69c-69.74-10.23-130.76-60.51-155.11-126.44C-21.59,175.08,16.58,72.69,101.32,25.4c142.61-79.59,313.54,39.16,291.55,199.9-11.96,87.42-83.54,159.09-171.69,168.01h0Z"/>
</svg>