<?xml version="1.0" encoding="UTF-8"?>
<svg id="Layer_1" data-name="Layer 1" xmlns="http://www.w3.org/2000/svg" viewBox="0 0 344.34 344.47">
  <defs>
    <style>
      .cls-1 {
        fill: #aaaf4e;
      }
    </style>
  </defs>
  <path class="cls-1" d="M182.14,0l32.71,5.29c62.54,16.14,112.1,67.4,125.55,130.73l3.82,26.12c-.28,6.68.38,13.53,0,20.18-6.87,119.92-133.68,196.69-243.7,146.57-8.16-3.72-15.76-8.62-23.56-12.68l-65.64,20.85,21.26-63.59C-6.1,219.28-10.94,147.62,21.29,89.03,49.31,38.1,103.76,3.34,161.97,0h20.18-.01ZM103.97,78.91c-21.7,2.5-32.6,30.6-32.13,49.92.85,34.93,45.28,85.19,72.03,105.57,22.43,17.09,71.05,40.6,99.09,31.99,18.11-5.56,30.76-17.14,32.57-36.71.69-7.44,1.5-9.88-4.84-13.82-6.09-3.78-34.67-17.84-40.76-19.1-10.03-2.08-14.52,9.79-19.95,16.45-8.32,10.2-10.64,10.05-22.91,4.9-15.18-6.37-32.62-19.51-43.61-31.73-4.02-4.47-19.64-24.43-19.81-29.34-.23-6.72,17.5-17.88,17.48-26.84,0-1.51-1-3.7-1.52-5.22-3.76-10.95-10.68-27.62-15.87-37.95-.8-1.59-2-4.38-3.2-5.55-3.27-3.2-12.22-3.06-16.57-2.56h0Z"/>
</svg>