<?xml version="1.0" encoding="UTF-8"?>
<svg id="Layer_1" data-name="Layer 1" xmlns="http://www.w3.org/2000/svg" viewBox="0 0 408.9 310.29">
  <defs>
    <style>
      .cls-1 {
        fill: #aaaf4e;
      }
    </style>
  </defs>
  <path class="cls-1" d="M369.04,265.95c-1.92,2.1-5.73,2.77-8.29,1.35l-43.06-28.37c-10.62,1.19-20.98,4.56-31.68,5.25-18.43,1.2-36.75-1.34-54.48-6.04-14.56,18.31-33.93,32.8-55.92,41.08-19.35,7.29-42.66,10.36-63.24,8.15-8.91-.96-17.52-3.96-26.41-4.37l-40.19,26.82c-6.29,1.81-9.7-1.78-9.74-7.9-.06-11.71,4.85-26.73,5.37-38.81.35-8.13-6.34-10.23-11.45-15.86C-17.65,194.74-6.92,118.93,50.81,79.51c31.88-21.78,71.39-27.74,108.97-19.51C201.87-4.33,294.49-18.64,356.73,25.38c59.96,42.41,70.37,121.66,20.09,176.51-4.53,4.94-12.18,8.52-11.94,15.37.49,13.53,5.12,29.5,6.22,43.26-.02,1.49-1.09,4.35-2.07,5.43h.01ZM354.33,245.96c.99-1.36-4.12-27.46-3.44-32.99,1.2-9.76,15.55-20.2,21.92-28.32,55.38-70.53,1.27-159.15-80.74-169.54-74.53-9.45-151.95,48.44-134.6,128.43,12.44,57.35,71.56,90.33,127.65,86.54,10.77-.73,26.38-6.7,35.94-5.07,9.41,1.6,24.16,16.52,33.26,20.95h0ZM152.47,73.19c-41.35-8.88-86.73,4.52-114.62,36.55-31.94,36.68-31.39,88.37.05,125.18,4.6,5.38,13.19,11.35,15.86,17.64,4.48,10.53-1.01,24.61-1.77,35.72,8.3-4.12,15.59-11.25,23.52-15.7,13.73-7.69,22.7-1.05,36.96.6,33.01,3.82,68.88-6.38,93.78-28.53,1.81-1.61,11.81-11.06,10.57-12.78-61.09-24.4-95.22-97.92-64.35-158.68h0Z"/>
  <path class="cls-1" d="M214.83,106.01c28.73-4.56,33.89,38.6,6.77,42.02-27.86,3.51-32.84-37.88-6.77-42.02ZM216.58,120.07c-8.11,1.77-6.32,16.01,4.01,13.76,8.11-1.77,6.32-16.01-4.01-13.76Z"/>
  <path class="cls-1" d="M271.25,106.01c28.73-4.56,33.89,38.6,6.77,42.02-27.86,3.51-32.84-37.88-6.77-42.02ZM273,120.07c-8.11,1.77-6.32,16.01,4.01,13.76,8.11-1.77,6.32-16.01-4.01-13.76Z"/>
  <path class="cls-1" d="M327.66,106.01c28.73-4.56,33.89,38.6,6.77,42.02-27.86,3.51-32.84-37.88-6.77-42.02ZM329.42,120.07c-8.11,1.77-6.32,16.01,4.01,13.76,8.11-1.77,6.32-16.01-4.01-13.76Z"/>
  <path class="cls-1" d="M75.53,211.77l66.76-.14c7.81,1.22,8.14,13.03-.81,14.07-20.09,2.33-44.63-1.73-65.2-.07-7.44-1.16-7.91-11.76-.75-13.86Z"/>
  <path class="cls-1" d="M75.53,169.45l52.65-.14c7.81,1.22,7.78,12.79,0,14-15.2,2.37-36.08-1.62-51.91,0-7.44-1.16-7.91-11.76-.75-13.86h.01Z"/>
  <path class="cls-1" d="M75.53,127.14l45.6-.14c7.81,1.22,7.78,12.79,0,14-6.95,1.08-37.91,1.08-44.85,0-7.44-1.16-7.91-11.76-.75-13.86Z"/>
</svg>