<?xml version="1.0" encoding="UTF-8"?>
<svg id="Layer_1" data-name="Layer 1" xmlns="http://www.w3.org/2000/svg" viewBox="0 0 381.89 381.61">
  <defs>
    <style>
      .cls-1 {
        fill: #aaaf4e;
      }
    </style>
  </defs>
  <path class="cls-1" d="M331.69,381.61h-96.15v-134.91h56.65l11.18-67.08h-67.83v-45.47h67.83v-67.08h-74.16c-27.79,0-60.75,32.96-60.75,60.75v51.8h-44.72v67.08h44.72v134.91H49.95c-6.79-1.35-13.33-3.02-19.54-6.18-12.63-6.44-23.85-19.57-27.96-33.16-1.06-3.5-1.34-7.15-2.45-10.6V49.93C3.66,23.35,24.85,2.31,51.81,0h278c24.74,2.13,45.53,20.42,50.73,44.67,1.8,97.18,1.8,195.08,0,292.26-4.45,22.73-25.69,42.43-48.86,44.68h.01Z"/>
</svg>