<?xml version="1.0" encoding="UTF-8"?>
<svg id="Layer_1" data-name="Layer 1" xmlns="http://www.w3.org/2000/svg" viewBox="0 0 327.66 271.19">
  <defs>
    <style>
      .cls-1 {
        fill: #aaaf4e;
      }
    </style>
  </defs>
  <path class="cls-1" d="M255.76,75.96c-.03-8.41-6.25-14.78-14.53-15.41l-94.73-.4-45.44-29.25c-18.34,1.59-40.6-2.23-58.47-.05-6.08.74-12.21,7.52-12.34,13.73v182.56c.52,8.61,9.68,16.08,18.03,13.04l24.25-119.49c6.32-17.08,21.58-28.51,39.81-29.95l189.38.22c14.11,2.19,24.52,13.43,25.94,27.61-7.23,38.23-12.75,77.54-22.08,115.37-5.35,21.67-19.64,35.35-42.38,37.25H41.89c-23.22-2.12-40.78-20.85-41.89-44.08V44.62C5.55-13.84,66.42,2.79,107.39.63c17.22,7.49,31.8,20.76,48.13,30.09,29.28,2,61.08-2.15,90.07.12,17.9,1.4,34.35,15.9,38.74,33.14.48,1.89,1.93,8.79,1.78,10.23-.06.63-.63,1.75-1.08,1.75h-29.27Z"/>
</svg>