<?xml version="1.0" encoding="UTF-8"?>
<svg id="Layer_1" data-name="Layer 1" xmlns="http://www.w3.org/2000/svg" viewBox="0 0 350.8 350.11">
  <defs>
    <style>
      .cls-1 {
        fill: #aaaf4e;
      }
    </style>
  </defs>
  <path class="cls-1" d="M350.77,180.88c-.07,1.59.1,3.21,0,4.8-1.88,30.95-13.62,64.6-31.63,89.98-1.16,1.64-6.79,9.38-7.73,10.11-.85.65-1.44.83-2.44.35-14.51-8.11-30.27-13.34-45.95-18.63,7.72-27.56,12.31-56.14,12.38-84.88l.64-1.41,74.72-.3v-.02Z"/>
  <path class="cls-1" d="M350.77,164.43v4.11h-75.36c.19-29.31-4.61-58.47-12.36-86.62,16.08-4.76,31.87-10.55,46.6-18.61l1.38.03c22.4,28.23,37.47,63.06,39.02,99.45l.71,1.66v-.02Z"/>
  <path class="cls-1" d="M168.54,350.1c-5.22-.66-13.39-4.3-18.02-6.98-23.32-13.54-37.07-41.68-46.4-65.96,21.14-5.49,43.25-7.68,65.11-7.91v80.85c-.23-.02-.46.03-.69,0h0Z"/>
  <path class="cls-1" d="M181.55,350.1v-80.85c21.85.23,43.96,2.41,65.1,7.91-10.57,27.64-25.66,57.37-54.15,69.85l-10.26,3.1h-.69,0Z"/>
  <path class="cls-1" d="M74.34,180.88c1.8.55.88,10.94,1.03,13.35,1.57,24.92,5.81,49.58,12.3,73.62-8.01,2.48-16.13,4.85-23.94,7.93-3.48,1.37-21.72,10.62-22.98,10.6-.65-.01-.92-.26-1.39-.62-.86-.66-6.32-8.15-7.44-9.71C12.4,248.74,1.39,214.43,0,180.88h74.34Z"/>
  <path class="cls-1" d="M0,168.54c1.5-38.57,15.7-75.82,40.15-105.45,15.27,7.47,30.9,14.57,47.55,18.45-7.51,28.34-12.6,57.54-12.33,87.01H0Z"/>
  <path class="cls-1" d="M169.22,180.88v75.36c-4.97,1.43-10.32.33-15.44.66-11.98.77-24.24,2.39-36.08,4.34-2.88.47-16.32,3.94-17.71,2.93-7.96-26.96-11.95-55.12-12.29-83.29h81.53,0Z"/>
  <path class="cls-1" d="M263.08,180.88c-.34,28.17-4.33,56.33-12.29,83.29-1.4,1-14.83-2.46-17.71-2.93-11.84-1.94-24.1-3.57-36.08-4.34-5.12-.33-10.47.77-15.44-.66v-75.36h81.53,0Z"/>
  <path class="cls-1" d="M169.22,93.18v75.36h-81.53c.33-28.28,4.6-56.47,12.36-83.57,22.73,4.9,45.85,7.86,69.16,8.21h0Z"/>
  <path class="cls-1" d="M181.55,93.18c23.31-.34,46.43-3.31,69.16-8.21,7.76,27.1,12.03,55.29,12.36,83.57h-81.53v-75.36h.01Z"/>
  <path class="cls-1" d="M169.22,0v80.85c-21.89-.91-43.74-3.03-65.09-7.89C115.54,42.77,134.16,6.03,169.22,0h0Z"/>
  <path class="cls-1" d="M181.55,0c35.06,6.02,53.68,42.76,65.09,72.96-21.36,4.86-43.2,6.98-65.09,7.89V0h0Z"/>
  <path class="cls-1" d="M131.54,344.62c-22.4-5.53-43.91-15.97-62.28-29.85-2.68-2.02-20.34-16.67-19.93-18.43,13.21-7.68,28-12.09,42.47-16.8,7.31,24.74,21.58,46.99,39.75,65.08h-.01Z"/>
  <path class="cls-1" d="M301.44,54.12c-13.87,5.96-27.67,12.27-42.46,15.77-7.57-24.3-21.43-46.23-39.07-64.4,23.94,5.62,47.86,17.89,66.78,33.58,3.63,3.01,11.6,9.75,14.07,13.33.4.58.95.68.67,1.71h.01Z"/>
  <path class="cls-1" d="M130.86,5.49c-17.76,18.12-31.55,40.05-39.06,64.4-14.76-3.59-28.57-9.81-42.43-15.8-.36-1.29.27-1.85.96-2.74,2.02-2.64,10.71-9.79,13.76-12.28,19.1-15.62,42.71-28.05,66.78-33.58h-.01Z"/>
  <path class="cls-1" d="M219.92,344.62c-.3-1.29.73-1.62,1.37-2.4,12.78-15.51,22.02-24.86,30.73-43.94,1.23-2.69,6.13-17.22,6.92-17.76.75-.52,1.45-.27,2.25-.17,4.14.55,12.83,3.95,17.13,5.53,7.88,2.89,15.81,6.34,23.13,10.46.55,2.36-21.75,19.76-25.13,22.13-17.07,11.93-36.23,20.82-56.39,26.16h0Z"/>
</svg>