<?xml version="1.0" encoding="UTF-8"?>
<svg id="Layer_1" data-name="Layer 1" xmlns="http://www.w3.org/2000/svg" viewBox="0 0 331.27 329.93">
  <defs>
    <style>
      .cls-1 {
        fill: #aaaf4e;
      }
    </style>
  </defs>
  <path class="cls-1" d="M73.91.13l184.06-.13c38.69,4.34,69.03,35.35,73.3,73.9v182.04c-4.29,38.89-35.01,69.8-73.99,73.99H75.24c-38.94-4.3-69.74-35.01-73.99-73.99,2.87-59.1-3.85-121.87-.05-180.54C3.7,36.86,35.8,4.42,73.9.13h.01ZM251.28,59.75c-17.95,3.06-17.49,32.21,3.04,32.84,23.48.71,21.42-37.01-3.04-32.84ZM162.23,82.26c-57.37,3-94.69,62.36-71.78,115.48,24.03,55.74,98.94,67.34,138.59,21.05,47.04-54.92,4.98-140.28-66.81-136.53Z"/>
  <path class="cls-1" d="M160.68,115.57c67.19-6.85,74.41,93.99,9.83,98.93-65.27,4.99-72.91-92.49-9.83-98.93Z"/>
</svg>