<?xml version="1.0" encoding="UTF-8"?>
<svg id="Layer_1" data-name="Layer 1" xmlns="http://www.w3.org/2000/svg" viewBox="0 0 358.48 358.3">
  <defs>
    <style>
      .cls-1 {
        fill: #aaaf4e;
      }
    </style>
  </defs>
  <path class="cls-1" d="M358.48,43.4v271.51c-.95,2.64-1.1,5.42-1.92,8.23-4.55,15.71-17.48,28.75-33.24,33.24-2.81.8-5.59.98-8.23,1.92H43.58c-23.26-3.24-41.39-21.55-43.38-45.14C.94,221.46-1.33,129.45,1.35,37.92,6.3,16.92,24.38,1.48,46,0l267.33.04c22.59,1.55,42.93,20.68,45.14,43.38v-.02ZM109.37,291.11l37.61-20.86c58.39,16.97,128.54-16.33,141.89-77.8,16.77-77.23-55.97-135.57-129.24-123.64-92.41,15.04-126.26,124.97-50.25,183.47v38.84h-.01Z"/>
  <polygon class="cls-1" points="250.72 142.77 190.8 206.39 162.15 176.36 107.98 205.74 167.17 142.09 196.59 172.04 250.72 142.77"/>
</svg>