<?xml version="1.0" encoding="UTF-8"?>
<svg id="Layer_1" data-name="Layer 1" xmlns="http://www.w3.org/2000/svg" viewBox="0 0 453.59 373.03">
  <defs>
    <style>
      .cls-1 {
        fill: #aaaf4e;
      }
    </style>
  </defs>
  <path class="cls-1" d="M387.3,105.38c33.88-1.1,62.68,26.39,65.42,59.83,3.76,45.87-2.5,101.46-59.66,106.09-6.6.53-13.05-.81-19.58-.45-27.26,40.13-69.2,68.61-117.48,76.54-12.5,33.5-61.79,34.96-72.62-.28-14.02-45.61,50.28-70,70.01-27.66,25.62-3.06,51.99-16.61,71.34-33.58,82.32-72.2,58.1-209.37-43.91-248.44C161.79-8.16,44.75,106.33,88.36,226.24c2.4,6.59,10.14,19.27,10.86,24.65,2.6,19.25-25.76,21.56-39.42,20.3C3.13,265.97-3.14,210.06,1.05,164.39c3.02-32.95,31.88-60.14,65.32-59.02C101.39,24.6,191.27-17.84,276.49,7.13c49.17,14.41,90.62,51.24,110.8,98.24h.01Z"/>
  <path class="cls-1" d="M222.1,60.26c51.46-2.26,99.57,31.83,114.29,81.02,25.96,86.74-51.94,166.42-138.92,144.77l-48.3,27.37c-9.91,2.97-17.49-2.6-18.88-12.49l12.55-48.18c-66.14-71.28-18.21-188.22,79.27-192.5h-.01ZM179.25,161.29c-16.46,2.38-15.11,29.37,4.23,27.06,17.64-2.11,13.36-29.59-4.23-27.06ZM224.8,161.29c-16.61,2.4-15.1,29.5,4.23,27.06,17.62-2.23,13.35-29.59-4.23-27.06ZM270.34,161.29c-16.61,2.4-15.1,29.5,4.23,27.06,17.61-2.23,13.23-29.58-4.23-27.06Z"/>
</svg>