<?xml version="1.0" encoding="UTF-8"?>
<svg id="Layer_1" data-name="Layer 1" xmlns="http://www.w3.org/2000/svg" viewBox="0 0 367.98 367.66">
  <defs>
    <style>
      .cls-1 {
        fill: #aaaf4e;
      }
    </style>
  </defs>
  <path class="cls-1" d="M367.76,25.95c-.52,6.68.7,14.34,0,20.88-1.17,10.91-7.5,25.14-13.81,34.08-7.87,11.14-17.66,18.3-28.52,26.2l7.81,77.61c.3,17.43-5.83,31.33-17.28,43.98-16.62,18.35-39.03,39.23-57.22,56.53-3.3,3.14-13.62,13.61-16.65,15.03-12.92,6.02-25.94-8.29-18.41-20.58l76.3-77.05c2.87-4.74,4.27-10.16,4.5-15.73l-6.87-67.35c-.65-.95-1.03-.56-1.84-.4-12.47,2.35-50.54,17.28-53.92-3.57-1.19-7.36,2.64-15.25,10.16-17.11,8.12-2,17.96-2.24,26.65-4.31,2.32-.55,13.89-3.55,14.97-4.46,1.69-1.42-.51-12.06-.8-14.7l-108.25-10.87c-8.44-.73-16.57,1.72-23.04,7.18L33.2,200c-8.03,14.59-4.71,26.28,5.62,38.07,28.05,32.02,63.74,60.77,92.52,92.5,8.88,8.04,20.27,11,31.78,6.63,5.99-2.27,10.53-9.01,16.59-10.04,13.32-2.27,21.76,11.9,14.18,22.83-15.42,22.22-60.2,23.27-79.1,4.35L13.67,253.16c-18.19-21.78-18.13-52.56-.39-74.53,43.2-39.61,82.42-87.21,125.94-126.04,13.6-12.13,26.74-18.03,45.4-17.3l73.23,7.24c11.37-20.86,32.59-33.37,55.05-39.41,25.04-6.74,45.55-4.05,54.86,22.84h0ZM338.07,29.73c-2.13-2.28-7.21-1.19-10.05-.71-12.56,2.12-27.37,8.21-36.54,17.08,8.57,1.8,20.95-.52,26.51,7.69,3.87,5.72,2.37,13.26,4.08,19.68,6.01-5.33,10.95-11.66,13.87-19.25,1.86-4.84,5.72-20.65,2.14-24.49h0Z"/>
  <path class="cls-1" d="M219.3,134.15c6.75-1.12,13.63,2.25,16.17,8.68,3.89,9.83-2.65,15.24-8.67,21.85,9.09,13.39,8.62,35.3-4.42,45.99-11.04,9.04-25.64.7-23.69-13.63.95-6.97,9.34-8.36,3.54-16.63-1.21-1.72-9.56-9.97-11.28-11.04-9.93-6.17-21.31,4.62-19.62,15.32.74,4.67,12.78,14.51,16.38,19.61,26.79,37.93-19.91,84.2-57.1,56.53-6.8,10.04-23.92,14.82-29.5,1.32-4.16-10.04,2.47-15.04,8.18-21.83-11.53-13.66-12.75-33.74-.27-47.31,11.57-12.59,29.14-2.45,25.22,12.99-1.27,5.02-7.29,7.01-4.58,13.19,1.25,2.85,16.44,17.99,19.36,19.52,6.36,3.33,12.97,1.09,16.42-5.1,5.9-10.59-7.95-18.28-13.56-25.13-29.48-36.01,13.66-86.97,53.61-63.91,4.48-3.57,7.7-9.41,13.83-10.43h-.02Z"/>
</svg>