<?xml version="1.0" encoding="UTF-8"?>
<svg id="Layer_1" data-name="Layer 1" xmlns="http://www.w3.org/2000/svg" viewBox="0 0 438.18 437.26">
  <defs>
    <style>
      .cls-1 {
        fill: #aaaf4e;
      }
    </style>
  </defs>
  <path class="cls-1" d="M40.29,437.25C18.87,431.71,1.68,413.09.09,390.6c-1.36-19.31,12.37-45.83,23.25-61.44,19.46-27.93,47.19-48.11,78.55-60.91-41.61-37.93-36.05-105.28,10.69-136.5,45.69-30.52,108.5-11.19,128.84,39.35,1.32.92,13.91-8.1,16.5-9.52,6.52-3.6,13.92-7.39,21.11-9.27.35-1.3-.35-1.42-.84-2.14-2.54-3.69-7.71-7.67-10.98-12.13-37.04-50.44-8.28-122.61,52.03-135.9,77.6-17.1,136.8,71.75,89.69,135.9-3.28,4.46-8.42,8.42-10.98,12.12-.5.72-1.19.85-.84,2.14,6.74,2.39,13.45,5.52,19.7,8.98,8.47,4.69,18.07,9.65,21.37,19.27v6.85c-2.68,8.55-9.04,14.27-18.42,13.73-6.94-.4-14.23-7.17-20.36-10.46-49.47-26.52-110.35-18.39-150.91,20.09-2.48,18.13-8.34,34.65-19.97,48.92-1.69,2.07-7.89,7.11-8.52,8.59-.59,1.38.49,1.16,1.07,1.45,4.47,2.26,9.6,3.72,14.34,6.22,6.07,3.19,20.48,11.09,23.46,16.75,5.84,11.11-.89,24.91-13.67,25.63-8.23.46-24.34-11.75-33.19-15.56-60.26-25.95-132.92-2.11-165.87,54.34-9.23,15.81-22.38,41.55,4.82,46.82l152.99.17c17.01,4.71,18.13,25.81,2.34,33.17H40.29h0ZM331.88,34.47c-74.52,8.49-52.1,125.29,21.38,103.52,61.46-18.21,42.27-110.77-21.38-103.52ZM154.77,151.71c-70.91,7.21-55.9,119.5,17.33,104.61,63.55-12.92,50.89-111.55-17.33-104.61Z"/>
  <path class="cls-1" d="M350.89,437.25c-3.97-1.69-11.12-8.93-11.12-13.26v-50.06h-50.06c-1.35,0-8.1-3.94-9.33-5.22-7.65-7.97-5.86-21.47,3.82-26.82.82-.46,4.2-2.19,4.65-2.19h50.91v-50.06c0-7.17,9.85-14.06,16.69-14.18,7.26-.13,17.54,6.52,17.54,14.18v50.06h50.91c4.89,0,12.52,8.86,13.26,13.69v6.85c-1.85,2.86-2.66,6.45-5.22,8.9-1.12,1.07-7.78,4.79-8.9,4.79h-50.06v50.06c0,4.33-7.15,11.57-11.12,13.26h-11.98.01Z"/>
</svg>