<?xml version="1.0" encoding="UTF-8"?>
<svg id="Layer_1" data-name="Layer 1" xmlns="http://www.w3.org/2000/svg" viewBox="0 0 365.74 365.92">
  <defs>
    <style>
      .cls-1 {
        fill: #aaaf4e;
      }
    </style>
  </defs>
  <path class="cls-1" d="M321.43,365.92H44.29c-2.7-.97-5.53-1.13-8.4-1.96-16.16-4.68-29.31-17.72-33.93-33.93-.82-2.86-1-5.7-1.96-8.4V44.49C3.31,20.75,22,2.24,46.08.21c93.61.75,187.53-1.56,280.95,1.17,21.43,5.05,37.2,23.5,38.71,45.58l-.04,272.88c-1.57,22.99-21.19,43.83-44.28,46.08h.01ZM175.57,68.99c-70.06,4.55-118.63,70.61-103.08,139.08,2.17,9.54,6.21,17.63,8.99,26.77-1.99,17.99-9.85,38.13-11.4,55.8-.41,4.69.62,6.98,5.78,6.54l56.01-13.37c59.07,28.32,129.84,2.88,155.39-57.43,32.86-77.58-27.94-162.85-111.7-157.41v.02Z"/>
  <path class="cls-1" d="M100.72,265.92l6.94-35.99c-28.97-47.05-9.58-109.22,41.64-130.07,66.34-27,135.53,31.91,120.21,101.64-13.21,60.18-81.74,87.68-134.14,56.16l-34.65,8.26ZM144.12,127.49c-4.44.65-12.39,9.98-14.69,13.93-5.24,9.01-4.38,18.07-1.58,27.73,9.14,31.48,63.54,79.45,98.05,65.89,7.65-3.01,25.11-20.07,14.06-27.29-2.28-1.49-20.79-6.86-24.06-7.36-10.75-1.64-10.89,11.9-21.81,9.66-7.68-1.57-35.5-26.33-38.3-33.84-3.94-10.53,8.97-12.03,6.91-21.91-.48-2.32-9.52-22.35-10.94-24.06-1.69-2.03-5.06-3.12-7.64-2.75Z"/>
</svg>