<?xml version="1.0" encoding="UTF-8"?>
<svg id="Layer_1" data-name="Layer 1" xmlns="http://www.w3.org/2000/svg" viewBox="0 0 344.91 344.91">
  <defs>
    <style>
      .cls-1 {
        fill: #aaaf4e;
      }
    </style>
  </defs>
  <path class="cls-1" d="M312.54,344.89H32.33c-16.95-3.05-29.29-15.38-32.33-32.33V32.35C3.1,15.03,16.3,1.88,34.03.03l276.19-.03c18.69,1.46,33.05,16.11,34.69,34.69l-.03,276.19c-1.42,16.68-15.56,32.02-32.32,34.03l-.02-.02ZM124.95,52.55H55.23l91.56,133.03-91.56,106.76h20.54l80.16-92.94,63.99,92.94h69.72l-94.86-138.43,86.78-101.37h-19.87l-75.45,87.57-1.96-1.41-59.33-86.17v.02Z"/>
  <polygon class="cls-1" points="261.35 277.53 230.03 277.53 83.52 68.04 114.85 68.04 261.35 277.53"/>
</svg>